<svg width="335" height="230" viewBox="0 0 335 230" fill="none" xmlns="http://www.w3.org/2000/svg">
<path d="M34.5 206V149.5C51.4702 143.433 60.154 139.495 69.5 128.5L90.5 140.5V164L62.5 161L65 201L66.5 177.5H90.5V213L73.5 229H50.5L34.5 206Z" fill="#FAFAFA" stroke="#FF0000"/>
<path d="M35.5 148.5L1.5 33.5L37 22.5L50 60L56.5 10.5L95.5 4.5L100.5 15.5L84.5 72.5L115 133L82.5 141.5L65.5 110L64 139L35.5 148.5Z" fill="#0190FE"/>
<path d="M35.5 148.5L1.5 33.5L37 22.5L50 60L56.5 10.5L95.5 4.5L100.5 15.5L84.5 72.5L115 133L82.5 141.5L65.5 110L64 139L35.5 148.5Z" fill="white" fill-opacity="0.15"/>
<path d="M35.5 148.5L1.5 33.5L37 22.5L50 60L56.5 10.5L95.5 4.5L100.5 15.5L84.5 72.5L115 133L82.5 141.5L65.5 110L64 139L35.5 148.5Z" stroke="#FF0000"/>
<path d="M117 133L102.5 7L139 4L146.5 130.5L117 133Z" fill="#0190FE" stroke="#FF0000"/>
<path d="M152.5 128C150.667 88.6667 147 9.7 147 8.5L181.5 6L205 54.5L208 1.5L242.5 6L229 136H201.5L183 80V128H152.5Z" fill="#0190FE" stroke="#FF0000"/>
<path d="M333.5 39L332 76.5L296.5 68.5L293 43.5L282 59.5L271.5 115L282 120.5L287 102.5L277.5 96.5L283 75.5L329 88L306 136L293 143.5L264 141.5L242 120.5V63.5L255 31L269.5 17.5H308L333.5 39Z" fill="#0190FE" stroke="#FF0000"/>
<path d="M298 225.5H271.5L270.5 145H285.5L309 131H320.5V145H299L298 225.5Z" fill="#FAFAFA" stroke="#FF0000"/>
<path d="M238 224.5H217L214 138L227 136.5L238 115L259 143H238L240 163L257.5 165.5L255.5 192.5H240L238 224.5Z" fill="#FAFAFA" stroke="#FF0000"/>
<path d="M214.5 228H187L183.5 207H174.5V222L154.5 226L152 209.5L163.5 131H180.5L187 109.5L192 108L214.5 228Z" fill="#FAFAFA" stroke="#FF0000"/>
<path d="M214.5 228H187L183.5 207H174.5V222L154.5 226L152 209.5L163.5 131H180.5L187 109.5L192 108L214.5 228Z" stroke="#FF0000"/>
<path d="M131.5 227C127.667 216.333 119.8 194.7 119 193.5L118 223.5L93.5 222.5V140.5L148.5 132L154 163L142 181L154 227H131.5Z" fill="#FAFAFA" stroke="#FF0000"/>
</svg>
