<svg width="395" height="264" viewBox="0 0 395 264" fill="none" xmlns="http://www.w3.org/2000/svg">
<path d="M90.5 235V178.5C107.47 172.433 116.154 168.495 125.5 157.5L146.5 169.5V193L118.5 190L121 230L122.5 206.5H146.5V242L129.5 258H106.5L90.5 235Z" fill="#FAFAFA" stroke="#FF0000"/>
<path d="M91.5 177.5L57.5 62.5L93 51.5L106 89L112.5 39.5L151.5 33.5L156.5 44.5L140.5 101.5L171 162L138.5 170.5L121.5 139L120 168L91.5 177.5Z" fill="#0190FE"/>
<path d="M91.5 177.5L57.5 62.5L93 51.5L106 89L112.5 39.5L151.5 33.5L156.5 44.5L140.5 101.5L171 162L138.5 170.5L121.5 139L120 168L91.5 177.5Z" fill="white" fill-opacity="0.15"/>
<path d="M91.5 177.5L57.5 62.5L93 51.5L106 89L112.5 39.5L151.5 33.5L156.5 44.5L140.5 101.5L171 162L138.5 170.5L121.5 139L120 168L91.5 177.5Z" stroke="#FF0000"/>
<path d="M173 162L158.5 36L195 33L202.5 159.5L173 162Z" fill="#0190FE" stroke="#FF0000"/>
<path d="M208.5 157C206.667 117.667 203 38.7 203 37.5L237.5 35L261 83.5L264 30.5L298.5 35L285 165H257.5L239 109V157H208.5Z" fill="#0190FE" stroke="#FF0000"/>
<path d="M389.5 68L388 105.5L352.5 97.5L349 72.5L338 88.5L327.5 144L338 149.5L343 131.5L333.5 125.5L339 104.5L385 117L362 165L349 172.5L320 170.5L298 149.5V92.5L311 60L325.5 46.5H364L389.5 68Z" fill="#0190FE"/>
<path d="M354 254.5H327.5L326.5 174H341.5L365 160H376.5V174H355L354 254.5Z" fill="#FAFAFA" stroke="#FF0000"/>
<path d="M294 253.5H273L270 167L283 165.5L294 144L315 172H294L296 192L313.5 194.5L311.5 221.5H296L294 253.5Z" fill="#FAFAFA" stroke="#FF0000"/>
<path d="M270.5 257H243L239.5 236H230.5V251L210.5 255L208 238.5L219.5 160H236.5L243 138.5L248 137L270.5 257Z" fill="#FAFAFA" stroke="#FF0000"/>
<path d="M270.5 257H243L239.5 236H230.5V251L210.5 255L208 238.5L219.5 160H236.5L243 138.5L248 137L270.5 257Z" stroke="#FF0000"/>
<path d="M187.5 256C183.667 245.333 175.8 223.7 175 222.5L174 252.5L149.5 251.5V169.5L204.5 161L210 192L198 210L210 256H187.5Z" fill="#FAFAFA" stroke="#FF0000"/>
<path d="M171 163L139.5 102.5L154.5 48C154.5 48 154.5 33.5 150 33.5C145.5 33.5 114 39.5 113.5 39.5C113 39.5 105 94 105 94L96 57C96 57 93.5 52.5 90 52C86.5 51.5 61 59.5 61 59.5C57.9402 61.7461 57.5873 63.3572 58 66.5L88 171C90.1848 178.196 92.3559 177.146 96 176.5L117 169.5M171 163L156 41.5C156 41.5 160 35.5 160 35C160 34.5001 190.5 32.5 190.5 32.5C193.944 32.9849 195.552 33.9258 197.5 37.5C197.5 37.5 205 157 204 160M171 163C183.887 161.828 203 163 204 160M171 163C170.437 164.795 169.511 165.301 167 165.5L149.5 169M204 160C207.443 168.309 208.276 173.175 209 182C209.69 187.896 208.91 190.988 207.5 196.5L197 210L206 238.5M254.5 161.5C254.768 164.415 258.3 165.442 258 165.5C257.559 165.585 262.553 165.5 268.5 165.5M254.5 161.5C254.232 158.585 238.5 102.5 238.5 102.5L240 153.5C240.116 156.934 239.65 158.39 236 158.5H217.5M254.5 161.5L270 254.5M333.5 127C338.167 127.135 340.561 127.771 344 131C341.764 138.92 339.99 143.077 335 149.5C331.173 149.305 329.458 148.347 328.5 142.5C330.831 114.3 333.989 98.8995 343 74.6629C343.643 72.2632 344.461 71.778 346.5 72H348.75C351.207 72.0642 351.367 73.1048 351 75.5V96C350.889 98.6258 351.577 99.3876 353.5 100.088L385 107.5C385 107.5 389.944 109.445 389.5 76C389.056 42.555 322.717 32.2439 310 59.5C297.283 86.7561 295.286 93.7794 294.5 127C294.49 143.949 299.104 151.994 310 165.5C314.184 167.936 317.97 169.963 321.585 171.5M338.5 102.5L381 114C381 114 386 118.5 385 118.5C384 118.5 373.5 146 364.53 160M117 169.5C120.74 168.718 120.917 166.579 121.5 163L117 152L119 146.5L121.5 141L131.434 160.5M117 169.5V230C119.11 236.44 120.067 235.921 121.5 230V210C122.428 206.2 123.956 205.919 127 206H148.922M117 169.5L117.771 172.5M89.6679 175L90.5 233C94.3435 247.321 99.3035 252.542 112.5 257.5C117.94 258.23 120.7 258.78 126 257.5C141.068 253.986 144.557 247.236 148.5 233M148.5 233L148.922 206M148.5 233L148 250C148.887 252.6 150.001 252.932 152 253.5H172C173.707 252.85 174.05 252.14 174 250.5L173.5 222.5C174.336 219.787 174.893 219.964 176 222.5L185.743 253.5C186.245 255.997 186.977 257.013 190 257.36L208.5 256.5M149.5 169L139.5 171C137.449 171.872 136.482 170.965 135 167.5L131.434 160.5M149.5 169L149.141 192M148.922 206L149.141 192M206 238.5L217.5 158.5M206 238.5L208.5 256.5M217.5 158.5H213C208.847 158.488 208.126 157.082 207.5 154L203 41.5C203.296 38.2285 204.038 36.7849 208 36H235.5C239.494 35.4563 240.337 37.8101 241.845 42L261 91L262 36C262.541 32.8606 264 30.5001 264.5 30.5C265 30.5 294.5 33.5 294.5 33.5C296.921 34.7827 298.912 34.3045 299 40L287 160C287.092 163.794 285.908 164.927 282 165.5C278.349 165.5 273.137 165.5 268.5 165.5M208.5 256.5C214.909 254.215 227.653 251.838 228 252.5C229.603 252.597 230.171 252.291 230.5 251L231.5 237H240L242 254.5C242.121 256.616 242.88 257.182 245 257.5H266C269.117 257.763 269.954 257.069 270 254.5M270 254.5H291C294.04 254.873 295.291 254.468 295.5 251V223.5C295.687 221.097 296.032 220.124 298 220.5H310C312.449 220.278 313.633 219.91 314 217V198C313.657 194.969 312.586 194.187 310 193.5L297.5 194C295.413 193.852 294.464 193.454 294 191V175C294.129 172.849 294.46 171.883 296.5 171.5H321.585M270 254.5L268.5 165.5M321.585 171.5C323.424 172.282 325.219 172.937 327 173.455M354 170.642C356.059 169.748 360 167 360.5 167.5C361 168 355.56 174 364.53 160M354 170.642V251C354.196 253.354 353.917 254.393 351 254.5H332.5C329.069 254.392 327.703 253.786 327 251V173.455M354 170.642C343.294 175.292 335.303 175.868 327 173.455M149.141 192C141.168 192.284 126 193.5 125.5 192.5C125 191.5 123.12 190.87 121.5 187L117.771 172.5M117.771 172.5C123.05 162.189 126.047 160.098 131.434 160.5M357.5 173.455H375C378.147 172.875 378.678 172.146 379 170.642V163.5C378.806 161.314 378.048 160.546 375.5 160L364.53 160M240 216H231.5L235.5 175L240 216ZM173.5 166.5V198.5C177.501 196.962 179.379 195.692 181 191.5C182.916 184.275 182.977 180.225 181 173C179.039 169.885 177.74 168.257 173.5 166.5Z" stroke="black" stroke-width="10"/>
<path d="M43.1885 55.9935C38.8181 56.2712 30.9375 52.792 25.2123 50.1136C24.4536 49.8898 23.7299 50.6659 24.1267 51.2778C27.0773 56.9315 31.0891 64.3002 31.2462 68.8L43.1885 55.9935Z" fill="#EBCB00" stroke="#45413C" stroke-miterlimit="10" stroke-linecap="round" stroke-linejoin="round"/>
<path d="M55.2514 43.0576C55.2237 38.6784 51.2032 31.0597 48.1319 25.5353C47.8557 24.7941 48.5795 24.0179 49.2176 24.3711C55.0634 26.9202 62.694 30.4081 67.1938 30.251L55.2514 43.0576Z" fill="#EBCB00" stroke="#45413C" stroke-miterlimit="10" stroke-linecap="round" stroke-linejoin="round"/>
<path d="M32.0588 34.7317C31.7827 33.9905 32.5064 33.2144 33.1445 33.5675C39.1109 35.9872 56.2165 42.0227 60.5591 37.3657C64.4193 33.2263 62.3376 23.7878 60.9044 18.5817C60.7488 17.7111 61.8519 17.0468 62.3781 17.7793L80.0321 35.9349C84.689 40.2775 79.0313 53.8658 67.3303 66.4136C55.6292 78.9615 42.4687 85.5532 37.8118 81.2106L18.2277 65.1248C17.5809 64.5217 18.1666 63.3749 18.9253 63.5987C24.2187 64.6653 33.9 65.9541 37.6395 61.944C42.2235 57.0283 34.8889 40.5148 32.0588 34.7317Z" fill="#FFE500"/>
<path d="M51.2675 79.4892L49.8358 38.4911C43.6631 37.33 36.6967 34.9452 33.2651 33.4382C32.5064 33.2144 31.7827 33.9905 32.1795 34.6024C35.0095 40.3855 42.2235 57.0283 37.8808 61.6853C34.0207 65.8248 24.46 64.4066 19.1666 63.34C18.2873 63.2455 17.7016 64.3923 18.469 64.8661L37.8118 81.2106C40.2696 83.5025 45.3725 82.6986 51.2675 79.4892Z" fill="#FFF48C"/>
<path d="M32.0588 34.7317C31.7827 33.9905 32.5064 33.2144 33.1445 33.5675C39.1109 35.9872 56.2165 42.0227 60.5591 37.3657C64.4193 33.2263 62.3376 23.7878 60.9044 18.5817C60.7488 17.7111 61.8519 17.0468 62.3781 17.7793L80.0321 35.9349C84.689 40.2775 79.0313 53.8658 67.3303 66.4136C55.6292 78.9615 42.4687 85.5532 37.8118 81.2106L18.2277 65.1248C17.5809 64.5217 18.1666 63.3749 18.9253 63.5987C24.2187 64.6653 33.9 65.9541 37.6395 61.944C42.2235 57.0283 34.8889 40.5148 32.0588 34.7317Z" stroke="#45413C" stroke-miterlimit="10" stroke-linecap="round" stroke-linejoin="round"/>
<path d="M57.9696 49.22C55.5117 46.928 51.5119 47.0677 49.22 49.5255C46.928 51.9833 47.0677 55.9832 49.5255 58.2751L52.1127 60.6877C54.5705 62.9797 58.5703 62.84 60.8623 60.3822C63.1543 57.9243 63.0146 53.9245 60.5568 51.6326L57.9696 49.22Z" fill="#FF6242"/>
<path d="M58.9219 58.5727C56.6299 61.0305 52.6301 61.1702 50.1723 58.8783L52.1127 60.6877C54.5705 62.9797 58.5703 62.84 60.8623 60.3822C63.1543 57.9243 63.0146 53.9245 60.5567 51.6326L58.6164 49.8231C61.0742 52.1151 61.2139 56.1149 58.9219 58.5727Z" fill="#E04122"/>
<path d="M49.22 49.5255C46.928 51.9833 47.0677 55.9832 49.5255 58.2751L52.1127 60.6877C52.2421 60.8083 52.3714 60.929 52.3714 60.929C50.1636 58.6283 50.162 54.9991 52.4539 52.5412C54.7459 50.0834 58.2457 49.9612 60.8155 51.8738C60.6861 51.7532 60.5568 51.6326 60.5568 51.6326L57.9696 49.22C55.5117 46.928 51.5119 47.0677 49.22 49.5255Z" fill="#FF866E"/>
<path d="M57.9696 49.22C55.5117 46.928 51.5119 47.0677 49.22 49.5255C46.928 51.9833 47.0677 55.9832 49.5255 58.2751L52.1127 60.6877C54.5705 62.9797 58.5703 62.84 60.8623 60.3822C63.1543 57.9243 63.0146 53.9245 60.5568 51.6326L57.9696 49.22Z" stroke="#45413C" stroke-miterlimit="10" stroke-linecap="round" stroke-linejoin="round"/>
<path d="M72.1475 43.0933C73.4799 41.6644 73.4018 39.4259 71.9729 38.0935C70.544 36.7611 68.3056 36.8392 66.9731 38.2681C65.6407 39.697 65.7189 41.9354 67.1477 43.2679C68.5766 44.6003 70.8151 44.5221 72.1475 43.0933Z" fill="#FF6242" stroke="#45413C" stroke-miterlimit="10" stroke-linecap="round" stroke-linejoin="round"/>
<path d="M44.4027 72.8459C45.7352 71.417 45.657 69.1785 44.2281 67.8461C42.7993 66.5137 40.5608 66.5918 39.2284 68.0207C37.8959 69.4496 37.9741 71.688 39.403 73.0205C40.8318 74.3529 43.0703 74.2747 44.4027 72.8459Z" fill="#FF6242" stroke="#45413C" stroke-miterlimit="10" stroke-linecap="round" stroke-linejoin="round"/>
<path d="M44.2797 87.242C48.9367 91.5847 62.0972 84.9929 73.7982 72.4451C85.4993 59.8973 91.157 46.309 86.5 41.9663L80.0321 35.9349C84.689 40.2775 79.0313 53.8658 67.3303 66.4136C55.6292 78.9615 42.4687 85.5532 37.8118 81.2106L44.2797 87.242Z" fill="#C0DCEB"/>
<path d="M67.3303 66.4136C55.6292 78.9615 42.4687 85.5532 37.8118 81.2106L41.0458 84.2263C45.7027 88.569 58.8632 81.9772 70.5643 69.4294C82.2653 56.8815 87.923 43.2933 83.266 38.9506L80.0321 35.9349C84.689 40.2775 79.0313 53.8658 67.3303 66.4136Z" fill="#E8F4FA"/>
<path d="M44.2797 87.242C48.9367 91.5847 62.0972 84.9929 73.7982 72.4451C85.4993 59.8973 91.157 46.309 86.5 41.9663L80.0321 35.9349C84.689 40.2775 79.0313 53.8658 67.3303 66.4136C55.6292 78.9615 42.4687 85.5532 37.8118 81.2106L44.2797 87.242Z" stroke="#45413C" stroke-miterlimit="10" stroke-linecap="round" stroke-linejoin="round"/>
<path d="M24.8679 51.0016C26.5335 49.2156 26.4357 46.4175 24.6497 44.7519C22.8636 43.0864 20.0655 43.1841 18.4 44.9702C16.7344 46.7562 16.8321 49.5543 18.6182 51.2199C20.4043 52.8854 23.2024 52.7877 24.8679 51.0016Z" fill="#FF6242"/>
<path d="M21.7911 52.4857C19.2912 52.573 17.2214 50.6429 17.2635 48.2637C17.3056 45.8844 19.1063 43.694 21.4855 43.7361L21.7911 52.4857Z" fill="#FF866E"/>
<path d="M24.8679 51.0016C26.5335 49.2156 26.4357 46.4175 24.6497 44.7519C22.8636 43.0864 20.0655 43.1841 18.4 44.9702C16.7344 46.7562 16.8321 49.5543 18.6182 51.2199C20.4043 52.8854 23.2024 52.7877 24.8679 51.0016Z" stroke="#45413C" stroke-miterlimit="10" stroke-linecap="round" stroke-linejoin="round"/>
<path d="M48.9938 25.1298C50.6593 23.3437 50.5616 20.5456 48.7755 18.8801C46.9895 17.2145 44.1914 17.3123 42.5258 19.0983C40.8603 20.8844 40.958 23.6825 42.7441 25.3481C44.5301 27.0136 47.3282 26.9159 48.9938 25.1298Z" fill="#FF6242"/>
<path d="M45.9169 26.6139C43.417 26.7012 41.3473 24.7711 41.3894 22.3918C41.3021 19.8919 43.2321 17.8222 45.6114 17.8643L45.9169 26.6139Z" fill="#FF866E"/>
<path d="M48.9938 25.1298C50.6593 23.3437 50.5616 20.5456 48.7755 18.8801C46.9895 17.2145 44.1914 17.3123 42.5258 19.0983C40.8603 20.8844 40.958 23.6825 42.7441 25.3481C44.5301 27.0136 47.3282 26.9159 48.9938 25.1298Z" stroke="#45413C" stroke-miterlimit="10" stroke-linecap="round" stroke-linejoin="round"/>
<path d="M17.8484 65.0129C19.847 62.8696 19.7298 59.5119 17.5865 57.5133C15.4432 55.5146 12.0855 55.6319 10.0868 57.7751C8.08818 59.9184 8.20544 63.2762 10.3487 65.2748C12.492 67.2735 15.8497 67.1562 17.8484 65.0129Z" fill="#FF6242"/>
<path d="M14.1509 66.6438C11.1511 66.7485 8.69326 64.4566 8.71786 61.5773C8.74246 58.6981 10.9051 56.1197 13.7843 56.1443L14.1509 66.6438Z" fill="#FF866E"/>
<path d="M17.8484 65.0129C19.847 62.8696 19.7298 59.5119 17.5865 57.5133C15.4432 55.5146 12.0855 55.6319 10.0868 57.7751C8.08818 59.9184 8.20544 63.2762 10.3487 65.2748C12.492 67.2735 15.8497 67.1562 17.8484 65.0129Z" stroke="#45413C" stroke-miterlimit="10" stroke-linecap="round" stroke-linejoin="round"/>
<path d="M33.6969 35.05C35.6955 32.9067 35.5783 29.549 33.435 27.5503C31.2917 25.5517 27.934 25.6689 25.9353 27.8122C23.9367 29.9555 24.0539 33.3132 26.1972 35.3119C28.3405 37.3105 31.6982 37.1933 33.6969 35.05Z" fill="#FF6242"/>
<path d="M29.9994 36.6809C26.9996 36.7856 24.5417 34.4937 24.5663 31.6144C24.5909 28.7352 26.7535 26.1567 29.6328 26.1813L29.9994 36.6809Z" fill="#FF866E"/>
<path d="M33.6969 35.05C35.6955 32.9067 35.5783 29.549 33.435 27.5503C31.2917 25.5517 27.934 25.6689 25.9353 27.8122C23.9367 29.9555 24.0539 33.3132 26.1972 35.3119C28.3405 37.3105 31.6982 37.1933 33.6969 35.05Z" stroke="#45413C" stroke-miterlimit="10" stroke-linecap="round" stroke-linejoin="round"/>
<path d="M62.4813 17.15C64.4799 15.0067 64.3627 11.649 62.2194 9.65036C60.0761 7.65171 56.7184 7.76896 54.7197 9.91226C52.7211 12.0555 52.8383 15.4133 54.9816 17.4119C57.1249 19.4106 60.4826 19.2933 62.4813 17.15Z" fill="#FF6242"/>
<path d="M58.7838 18.7809C55.784 18.8856 53.3261 16.5937 53.3507 13.7145C53.3753 10.8352 55.5379 8.25677 58.4172 8.28137L58.7838 18.7809Z" fill="#FF866E"/>
<path d="M62.4813 17.15C64.4799 15.0067 64.3627 11.649 62.2194 9.65036C60.0761 7.65171 56.7184 7.76896 54.7197 9.91226C52.7211 12.0555 52.8383 15.4133 54.9816 17.4119C57.1249 19.4106 60.4826 19.2933 62.4813 17.15Z" stroke="#45413C" stroke-miterlimit="10" stroke-linecap="round" stroke-linejoin="round"/>
</svg>
