<svg width="343" height="239" viewBox="0 0 343 239" fill="none" xmlns="http://www.w3.org/2000/svg">
<path d="M119 138L87.5 77.5L102.5 23C102.5 23 102.5 8.50002 98 8.50002C93.5 8.50002 62 14.5 61.5 14.5C61 14.5 53 69 53 69L44 32C44 32 41.5 27.5 38 27C34.5 26.5 8.99999 34.5 8.99999 34.5C5.94023 36.7461 5.58731 38.3572 5.99999 41.5L36 146C38.1848 153.196 40.3559 152.146 44 151.5L65 144.5M119 138L104 16.5C104 16.5 108 10.5 108 10C108 9.50004 138.5 7.50002 138.5 7.50002C141.944 7.9849 143.552 8.92578 145.5 12.5C145.5 12.5 153 132 152 135M119 138C131.887 136.828 151 138 152 135M119 138C118.437 139.795 117.511 140.301 115 140.5L97.5 144M152 135C155.443 143.309 156.276 148.175 157 157C157.69 162.896 156.91 165.988 155.5 171.5L145 185L154 213.5M202.5 136.5C202.768 139.415 206.3 140.442 206 140.5C205.559 140.585 210.553 140.5 216.5 140.5M202.5 136.5C202.232 133.585 186.5 77.5 186.5 77.5L188 128.5C188.116 131.934 187.65 133.39 184 133.5H165.5M202.5 136.5L218 229.5M281.5 102C286.167 102.135 288.561 102.771 292 106C289.764 113.92 287.99 118.077 283 124.5C279.173 124.305 277.458 123.347 276.5 117.5C278.831 89.3002 281.989 73.8995 291 49.6629C291.643 47.2632 292.461 46.778 294.5 47H296.75C299.207 47.0642 299.367 48.1048 299 50.5V71C298.889 73.6258 299.577 74.3876 301.5 75.0882L333 82.5C333 82.5 337.944 84.4451 337.5 51C337.056 17.5549 270.717 7.24387 258 34.5C245.283 61.7561 243.286 68.7794 242.5 102C242.49 118.949 247.104 126.994 258 140.5C262.184 142.936 265.97 144.963 269.585 146.5M286.5 77.5L329 89C329 89 334 93.5 333 93.5C332 93.5 321.5 121 312.53 135M65 144.5C68.7403 143.718 68.917 141.579 69.5 138L65 127L67 121.5L69.5 116L79.434 135.5M65 144.5V205C67.1104 211.44 68.0671 210.92 69.5 205V185C70.4277 181.2 71.9564 180.919 75 181H96.9219M65 144.5L65.7714 147.5M37.6679 150L38.5 208C42.3435 222.321 47.3035 227.542 60.5 232.5C65.9401 233.23 68.7003 233.78 74 232.5C89.0679 228.986 92.557 222.236 96.5 208M96.5 208L96.9219 181M96.5 208L96 225C96.8867 227.6 98.0008 227.932 100 228.5H120C121.707 227.85 122.05 227.14 122 225.5L121.5 197.5C122.336 194.787 122.893 194.964 124 197.5L133.743 228.5C134.245 230.997 134.977 232.013 138 232.36L156.5 231.5M97.5 144L87.5 146C85.4488 146.872 84.4821 145.965 83 142.5L79.434 135.5M97.5 144L97.1406 167M96.9219 181L97.1406 167M154 213.5L165.5 133.5M154 213.5L156.5 231.5M165.5 133.5H161C156.847 133.487 156.126 132.082 155.5 129L151 16.5C151.296 13.2285 152.038 11.7849 156 11H183.5C187.494 10.4563 188.337 12.8101 189.845 17L209 66L210 11C210.541 7.8606 212 5.50005 212.5 5.50002C213 5.5 242.5 8.50002 242.5 8.50002C244.921 9.7827 246.912 9.30448 247 15L235 135C235.092 138.794 233.908 139.927 230 140.5C226.349 140.5 221.137 140.5 216.5 140.5M156.5 231.5C162.909 229.215 175.653 226.838 176 227.5C177.603 227.597 178.171 227.291 178.5 226L179.5 212H188L190 229.5C190.121 231.616 190.88 232.182 193 232.5H214C217.117 232.763 217.954 232.069 218 229.5M218 229.5H239C242.04 229.873 243.291 229.467 243.5 226V198.5C243.687 196.097 244.032 195.124 246 195.5H258C260.449 195.278 261.633 194.91 262 192V173C261.657 169.969 260.586 169.187 258 168.5L245.5 169C243.413 168.852 242.464 168.454 242 166V150C242.129 147.849 242.46 146.883 244.5 146.5H269.585M218 229.5L216.5 140.5M269.585 146.5C271.424 147.282 273.219 147.937 275 148.455M302 145.642C304.059 144.748 308 142 308.5 142.5C309 143 303.56 149 312.53 135M302 145.642V226C302.196 228.354 301.917 229.393 299 229.5H280.5C277.069 229.392 275.703 228.786 275 226V148.455M302 145.642C291.294 150.292 283.303 150.868 275 148.455M97.1406 167C89.1677 167.284 74 168.5 73.5 167.5C73 166.5 71.1198 165.87 69.5 162L65.7714 147.5M65.7714 147.5C71.0499 137.189 74.0469 135.098 79.434 135.5M305.5 148.455H323C326.147 147.875 326.678 147.146 327 145.642V138.5C326.806 136.314 326.048 135.546 323.5 135L312.53 135M188 191H179.5L183.5 150L188 191ZM121.5 141.5V173.5C125.501 171.962 127.379 170.692 129 166.5C130.916 159.275 130.977 155.225 129 148C127.039 144.885 125.74 143.257 121.5 141.5Z" stroke="black" stroke-width="10"/>
</svg>
