<svg width="102" height="103" viewBox="0 0 102 103" fill="none" xmlns="http://www.w3.org/2000/svg">
<path d="M43.1885 55.9935C38.8181 56.2712 30.9375 52.792 25.2123 50.1136C24.4536 49.8898 23.7299 50.6659 24.1267 51.2778C27.0773 56.9315 31.0891 64.3002 31.2462 68.8L43.1885 55.9935Z" fill="#EBCB00" stroke="#45413C" stroke-miterlimit="10" stroke-linecap="round" stroke-linejoin="round"/>
<path d="M55.2514 43.0575C55.2237 38.6784 51.2032 31.0597 48.1319 25.5353C47.8557 24.7941 48.5795 24.0179 49.2176 24.3711C55.0634 26.9202 62.694 30.4081 67.1938 30.251L55.2514 43.0575Z" fill="#EBCB00" stroke="#45413C" stroke-miterlimit="10" stroke-linecap="round" stroke-linejoin="round"/>
<path d="M32.0588 34.7317C31.7827 33.9905 32.5064 33.2144 33.1445 33.5675C39.1109 35.9872 56.2165 42.0227 60.5591 37.3657C64.4193 33.2262 62.3376 23.7878 60.9044 18.5817C60.7488 17.7111 61.8519 17.0468 62.3781 17.7793L80.0321 35.9349C84.689 40.2775 79.0313 53.8658 67.3303 66.4136C55.6292 78.9615 42.4687 85.5532 37.8118 81.2106L18.2277 65.1248C17.5809 64.5217 18.1666 63.3749 18.9253 63.5987C24.2187 64.6653 33.9 65.9541 37.6395 61.944C42.2235 57.0283 34.8889 40.5148 32.0588 34.7317Z" fill="#FFE500"/>
<path d="M51.2675 79.4892L49.8358 38.4911C43.6631 37.33 36.6967 34.9452 33.2651 33.4381C32.5064 33.2143 31.7827 33.9905 32.1795 34.6024C35.0095 40.3854 42.2235 57.0283 37.8808 61.6853C34.0207 65.8248 24.46 64.4066 19.1666 63.34C18.2873 63.2455 17.7016 64.3923 18.469 64.8661L37.8118 81.2106C40.2696 83.5025 45.3725 82.6986 51.2675 79.4892Z" fill="#FFF48C"/>
<path d="M32.0588 34.7317C31.7827 33.9905 32.5064 33.2144 33.1445 33.5675C39.1109 35.9872 56.2165 42.0227 60.5591 37.3657C64.4193 33.2262 62.3376 23.7878 60.9044 18.5817C60.7488 17.7111 61.8519 17.0468 62.3781 17.7793L80.0321 35.9349C84.689 40.2775 79.0313 53.8658 67.3303 66.4136C55.6292 78.9615 42.4687 85.5532 37.8118 81.2106L18.2277 65.1248C17.5809 64.5217 18.1666 63.3749 18.9253 63.5987C24.2187 64.6653 33.9 65.9541 37.6395 61.944C42.2235 57.0283 34.8889 40.5148 32.0588 34.7317Z" stroke="#45413C" stroke-miterlimit="10" stroke-linecap="round" stroke-linejoin="round"/>
<path d="M57.9696 49.22C55.5117 46.928 51.5119 47.0677 49.22 49.5255C46.928 51.9833 47.0677 55.9831 49.5255 58.2751L52.1127 60.6877C54.5705 62.9797 58.5703 62.84 60.8623 60.3821C63.1543 57.9243 63.0146 53.9245 60.5568 51.6325L57.9696 49.22Z" fill="#FF6242"/>
<path d="M58.9219 58.5727C56.6299 61.0305 52.6301 61.1702 50.1723 58.8783L52.1127 60.6877C54.5705 62.9797 58.5703 62.84 60.8623 60.3821C63.1543 57.9243 63.0146 53.9245 60.5567 51.6325L58.6164 49.8231C61.0742 52.1151 61.2139 56.1149 58.9219 58.5727Z" fill="#E04122"/>
<path d="M49.22 49.5255C46.928 51.9833 47.0677 55.9831 49.5255 58.2751L52.1127 60.6877C52.2421 60.8083 52.3714 60.929 52.3714 60.929C50.1636 58.6283 50.162 54.9991 52.4539 52.5412C54.7459 50.0834 58.2457 49.9612 60.8155 51.8738C60.6861 51.7532 60.5568 51.6326 60.5568 51.6326L57.9696 49.22C55.5117 46.928 51.5119 47.0677 49.22 49.5255Z" fill="#FF866E"/>
<path d="M57.9696 49.22C55.5117 46.928 51.5119 47.0677 49.22 49.5255C46.928 51.9833 47.0677 55.9831 49.5255 58.2751L52.1127 60.6877C54.5705 62.9797 58.5703 62.84 60.8623 60.3821C63.1543 57.9243 63.0146 53.9245 60.5568 51.6325L57.9696 49.22Z" stroke="#45413C" stroke-miterlimit="10" stroke-linecap="round" stroke-linejoin="round"/>
<path d="M72.1475 43.0933C73.4799 41.6644 73.4018 39.4259 71.9729 38.0935C70.544 36.7611 68.3056 36.8392 66.9731 38.2681C65.6407 39.6969 65.7189 41.9354 67.1477 43.2679C68.5766 44.6003 70.8151 44.5221 72.1475 43.0933Z" fill="#FF6242" stroke="#45413C" stroke-miterlimit="10" stroke-linecap="round" stroke-linejoin="round"/>
<path d="M44.4027 72.8459C45.7352 71.417 45.657 69.1785 44.2281 67.8461C42.7993 66.5137 40.5608 66.5918 39.2284 68.0207C37.8959 69.4496 37.9741 71.688 39.403 73.0205C40.8318 74.3529 43.0703 74.2747 44.4027 72.8459Z" fill="#FF6242" stroke="#45413C" stroke-miterlimit="10" stroke-linecap="round" stroke-linejoin="round"/>
<path d="M44.2797 87.242C48.9367 91.5847 62.0972 84.9929 73.7982 72.4451C85.4993 59.8972 91.157 46.309 86.5 41.9663L80.0321 35.9349C84.689 40.2775 79.0313 53.8658 67.3303 66.4136C55.6292 78.9615 42.4687 85.5532 37.8118 81.2106L44.2797 87.242Z" fill="#C0DCEB"/>
<path d="M67.3303 66.4136C55.6292 78.9615 42.4687 85.5532 37.8118 81.2106L41.0458 84.2263C45.7027 88.569 58.8632 81.9772 70.5643 69.4294C82.2653 56.8815 87.923 43.2932 83.266 38.9506L80.0321 35.9349C84.689 40.2775 79.0313 53.8658 67.3303 66.4136Z" fill="#E8F4FA"/>
<path d="M44.2797 87.242C48.9367 91.5847 62.0972 84.9929 73.7982 72.4451C85.4993 59.8972 91.157 46.309 86.5 41.9663L80.0321 35.9349C84.689 40.2775 79.0313 53.8658 67.3303 66.4136C55.6292 78.9615 42.4687 85.5532 37.8118 81.2106L44.2797 87.242Z" stroke="#45413C" stroke-miterlimit="10" stroke-linecap="round" stroke-linejoin="round"/>
<path d="M24.8679 51.0016C26.5335 49.2156 26.4357 46.4175 24.6497 44.7519C22.8636 43.0864 20.0655 43.1841 18.4 44.9702C16.7344 46.7562 16.8321 49.5543 18.6182 51.2199C20.4043 52.8854 23.2024 52.7877 24.8679 51.0016Z" fill="#FF6242"/>
<path d="M21.7911 52.4857C19.2912 52.573 17.2214 50.6429 17.2635 48.2637C17.3056 45.8844 19.1063 43.694 21.4855 43.7361L21.7911 52.4857Z" fill="#FF866E"/>
<path d="M24.8679 51.0016C26.5335 49.2156 26.4357 46.4175 24.6497 44.7519C22.8636 43.0864 20.0655 43.1841 18.4 44.9702C16.7344 46.7562 16.8321 49.5543 18.6182 51.2199C20.4043 52.8854 23.2024 52.7877 24.8679 51.0016Z" stroke="#45413C" stroke-miterlimit="10" stroke-linecap="round" stroke-linejoin="round"/>
<path d="M48.9938 25.1298C50.6593 23.3437 50.5616 20.5456 48.7755 18.8801C46.9895 17.2145 44.1914 17.3123 42.5258 19.0983C40.8603 20.8844 40.958 23.6825 42.7441 25.348C44.5301 27.0136 47.3282 26.9159 48.9938 25.1298Z" fill="#FF6242"/>
<path d="M45.9169 26.6139C43.417 26.7012 41.3473 24.7711 41.3894 22.3918C41.3021 19.8919 43.2321 17.8222 45.6114 17.8643L45.9169 26.6139Z" fill="#FF866E"/>
<path d="M48.9938 25.1298C50.6593 23.3437 50.5616 20.5456 48.7755 18.8801C46.9895 17.2145 44.1914 17.3123 42.5258 19.0983C40.8603 20.8844 40.958 23.6825 42.7441 25.348C44.5301 27.0136 47.3282 26.9159 48.9938 25.1298Z" stroke="#45413C" stroke-miterlimit="10" stroke-linecap="round" stroke-linejoin="round"/>
<path d="M17.8484 65.0129C19.847 62.8696 19.7298 59.5119 17.5865 57.5132C15.4432 55.5146 12.0855 55.6318 10.0868 57.7751C8.08818 59.9184 8.20544 63.2761 10.3487 65.2748C12.492 67.2734 15.8497 67.1562 17.8484 65.0129Z" fill="#FF6242"/>
<path d="M14.1509 66.6438C11.1511 66.7485 8.69326 64.4566 8.71786 61.5773C8.74246 58.6981 10.9051 56.1197 13.7843 56.1443L14.1509 66.6438Z" fill="#FF866E"/>
<path d="M17.8484 65.0129C19.847 62.8696 19.7298 59.5119 17.5865 57.5132C15.4432 55.5146 12.0855 55.6318 10.0868 57.7751C8.08818 59.9184 8.20544 63.2761 10.3487 65.2748C12.492 67.2734 15.8497 67.1562 17.8484 65.0129Z" stroke="#45413C" stroke-miterlimit="10" stroke-linecap="round" stroke-linejoin="round"/>
<path d="M33.6969 35.05C35.6955 32.9067 35.5783 29.549 33.435 27.5503C31.2917 25.5517 27.934 25.6689 25.9353 27.8122C23.9367 29.9555 24.0539 33.3132 26.1972 35.3119C28.3405 37.3105 31.6982 37.1933 33.6969 35.05Z" fill="#FF6242"/>
<path d="M29.9994 36.6809C26.9996 36.7856 24.5417 34.4937 24.5663 31.6144C24.5909 28.7352 26.7535 26.1567 29.6328 26.1813L29.9994 36.6809Z" fill="#FF866E"/>
<path d="M33.6969 35.05C35.6955 32.9067 35.5783 29.549 33.435 27.5503C31.2917 25.5517 27.934 25.6689 25.9353 27.8122C23.9367 29.9555 24.0539 33.3132 26.1972 35.3119C28.3405 37.3105 31.6982 37.1933 33.6969 35.05Z" stroke="#45413C" stroke-miterlimit="10" stroke-linecap="round" stroke-linejoin="round"/>
<path d="M62.4813 17.15C64.4799 15.0067 64.3627 11.649 62.2194 9.65035C60.0761 7.65169 56.7184 7.76895 54.7197 9.91224C52.7211 12.0555 52.8383 15.4132 54.9816 17.4119C57.1249 19.4105 60.4826 19.2933 62.4813 17.15Z" fill="#FF6242"/>
<path d="M58.7838 18.7809C55.784 18.8856 53.3261 16.5937 53.3507 13.7144C53.3753 10.8352 55.5379 8.25676 58.4172 8.28136L58.7838 18.7809Z" fill="#FF866E"/>
<path d="M62.4813 17.15C64.4799 15.0067 64.3627 11.649 62.2194 9.65035C60.0761 7.65169 56.7184 7.76895 54.7197 9.91224C52.7211 12.0555 52.8383 15.4132 54.9816 17.4119C57.1249 19.4105 60.4826 19.2933 62.4813 17.15Z" stroke="#45413C" stroke-miterlimit="10" stroke-linecap="round" stroke-linejoin="round"/>
</svg>
